<?xml version="1.0" encoding="UTF-8"?> <svg xmlns:xlink="http://www.w3.org/1999/xlink" xmlns="http://www.w3.org/2000/svg" fill-rule="evenodd" viewBox="0 0 100 100" width="100" height="100"><path d="M91.267 27.322c-.259-1.522-1.091-2.95-2.343-4.02l-1.096-.936a7.05 7.05 0 0 0-3.09-1.547l2.973-3.479c.995-1.165 1.392-2.701 1.114-4.324-.26-1.522-1.092-2.949-2.344-4.019l-1.096-.936c-2.667-2.276-6.447-2.236-8.433.088l-2.972 3.479a7.042 7.042 0 0 0-2.011-2.81l-1.096-.936c-1.253-1.069-2.792-1.668-4.336-1.687h-.075c-1.616 0-3.043.63-4.023 1.778l-9.01 10.547a7.003 7.003 0 0 0-2.006-2.815l-1.096-.936c-2.662-2.274-6.445-2.235-8.433.088L20.777 39.572a18.961 18.961 0 0 0-2.521 3.796 1.53 1.53 0 0 0-.136.406l-1.836 10.134c-.981 5.42-3.313 10.406-6.744 14.422l-.528.618a1.499 1.499 0 0 0 .166 2.115l26.197 22.384a1.501 1.501 0 0 0 2.115-.166c3.76-4.4 8.828-7.646 14.655-9.385l9.037-2.697c.136-.041.265-.1.384-.177a19.045 19.045 0 0 0 4.167-3.633L79.55 61.217c1.982-2.325 1.431-6.069-1.231-8.345h-.001l-1.095-.936a7.012 7.012 0 0 0-3.094-1.542L90.15 31.648c.996-1.166 1.393-2.703 1.117-4.326zm-3.398 2.376-17.41 20.376-.006.006-11.104 12.997a1.5 1.5 0 1 0 2.282 1.949l9.439-11.049.004-.004c.896-1.046 2.821-.937 4.202.245l1.095.936c1.382 1.181 1.793 3.067.898 4.116L63.453 75.44a16.032 16.032 0 0 1-3.336 2.946l-8.828 2.635c-5.881 1.755-11.064 4.92-15.078 9.193L12.262 69.752c3.535-4.324 5.941-9.602 6.975-15.309l1.797-9.917a15.885 15.885 0 0 1 2.025-3.006l21.116-24.715c.897-1.049 2.822-.937 4.204.244l1.096.936c1.38 1.179 1.791 3.059.9 4.108l-.004.004-10.416 12.189a1.5 1.5 0 1 0 2.281 1.95l10.408-12.179.01-.009L64.722 9.921c.4-.469 1.02-.727 1.744-.727h.037c.843.01 1.704.354 2.423.969l1.096.936c.72.614 1.193 1.411 1.336 2.242.123.722-.03 1.379-.427 1.855l-22.5 26.332a1.501 1.501 0 0 0 2.281 1.949l22.475-26.303.012-.011.007-.008 6.029-7.058c.896-1.049 2.82-.936 4.202.245l1.096.936c.72.614 1.194 1.411 1.336 2.242.124.73-.031 1.395-.438 1.871l-4.752 5.562c-.004.004-.009.007-.012.012l-23.76 27.806a1.5 1.5 0 1 0 2.282 1.949l22.474-26.303.012-.012c.4-.469 1.02-.727 1.744-.727h.037c.843.01 1.704.354 2.423.969l1.096.936c.72.614 1.193 1.41 1.335 2.242.124.731-.033 1.396-.441 1.873z"></path></svg> 