<?xml version="1.0" encoding="UTF-8"?> <svg xmlns:xlink="http://www.w3.org/1999/xlink" xmlns="http://www.w3.org/2000/svg" fill-rule="evenodd" viewBox="0 0 100 100" width="100" height="100"><path d="M73.22 70.478C70.521 53.712 52.053 7.671 51.268 5.719a1.499 1.499 0 0 0-1.382-.94h-.009c-.605 0-1.151.364-1.385.923-.809 1.941-19.849 47.742-22.775 64.471-.933 5.323.605 10.714 4.329 15.179 4.589 5.502 11.973 8.951 19.272 9.002h.156c7.242 0 14.596-3.344 19.225-8.751 3.784-4.421 5.39-9.793 4.521-15.125zm-6.8 13.173c-4.074 4.76-10.556 7.703-16.944 7.703l-.139-.001c-6.439-.045-12.949-3.081-16.988-7.924-3.149-3.775-4.456-8.3-3.678-12.739 2.414-13.8 16.616-49.229 21.18-60.407 4.422 11.232 18.181 46.841 20.408 60.673.724 4.449-.639 8.957-3.839 12.695z"></path><path d="M43.828 81.965c-4.552-3.287-6.817-8.545-5.913-13.723.473-2.705 1.449-6.479 2.902-11.214a1.5 1.5 0 0 0-.994-1.874 1.494 1.494 0 0 0-1.874.993c-1.49 4.855-2.495 8.751-2.989 11.579-1.104 6.318 1.621 12.706 7.112 16.67a1.5 1.5 0 0 0 1.756-2.431z"></path></svg> 